<?xml version="1.0" encoding="UTF-8"?>
<svg width="24px" height="24px" viewBox="0 0 24 24" version="1.1" xmlns="http://www.w3.org/2000/svg">
    <title>BBQ Icon</title>
    <g stroke="none" stroke-width="1" fill="none" fill-rule="evenodd">
        <path d="M17,10 C17,7.79 15.21,6 13,6 C10.79,6 9,7.79 9,10 C9,12.21 10.79,14 13,14 C15.21,14 17,12.21 17,10 Z M13,12 C11.9,12 11,11.1 11,10 C11,8.9 11.9,8 13,8 C14.1,8 15,8.9 15,10 C15,11.1 14.1,12 13,12 Z" fill="#FF5722"></path>
        <path d="M9,18 C9,18.55 9.45,19 10,19 L16,19 C16.55,19 17,18.55 17,18 L17,17 L9,17 L9,18 Z" fill="#FF5722"></path>
        <path d="M13,16 L13,15 C13,14.45 12.55,14 12,14 C11.45,14 11,14.45 11,15 L11,16 L13,16 Z" fill="#FF5722"></path>
        <path d="M15,16 L15,15 C15,14.45 14.55,14 14,14 C13.45,14 13,14.45 13,15 L13,16 L15,16 Z" fill="#FF5722"></path>
        <path d="M17,16 L17,15 C17,14.45 16.55,14 16,14 C15.45,14 15,14.45 15,15 L15,16 L17,16 Z" fill="#FF5722"></path>
        <path d="M11,16 L11,15 C11,14.45 10.55,14 10,14 C9.45,14 9,14.45 9,15 L9,16 L11,16 Z" fill="#FF5722"></path>
        <path d="M17.5,10 C17.5,7.51 15.49,5.5 13,5.5 C10.51,5.5 8.5,7.51 8.5,10 C8.5,12.49 10.51,14.5 13,14.5 C15.49,14.5 17.5,12.49 17.5,10 Z M13,12.5 C11.62,12.5 10.5,11.38 10.5,10 C10.5,8.62 11.62,7.5 13,7.5 C14.38,7.5 15.5,8.62 15.5,10 C15.5,11.38 14.38,12.5 13,12.5 Z" stroke="#FF5722"></path>
    </g>
</svg>
